<?xml version="1.0"?>
<svg xmlns="http://www.w3.org/2000/svg" width="300" height="300">
	<rect width="100%" height="100%" fill="#eeeed2" />

	<rect width="50px" height="50px" x="0px" y="0px" fill="#769656" />
	<rect width="50px" height="50px" x="0px" y="100px" fill="#769656" />
	<rect width="50px" height="50px" x="0px" y="200px" fill="#769656" />
	<rect width="50px" height="50px" x="50px" y="50px" fill="#769656" />
	<rect width="50px" height="50px" x="50px" y="150px" fill="#769656" />
	<rect width="50px" height="50px" x="50px" y="250px" fill="#769656" />
	<rect width="50px" height="50px" x="100px" y="0px" fill="#769656" />
	<rect width="50px" height="50px" x="100px" y="100px" fill="#769656" />
	<rect width="50px" height="50px" x="100px" y="200px" fill="#769656" />
	<rect width="50px" height="50px" x="150px" y="50px" fill="#769656" />
	<rect width="50px" height="50px" x="150px" y="150px" fill="#769656" />
	<rect width="50px" height="50px" x="150px" y="250px" fill="#769656" />
	<rect width="50px" height="50px" x="200px" y="0px" fill="#769656" />
	<rect width="50px" height="50px" x="200px" y="100px" fill="#769656" />
	<rect width="50px" height="50px" x="200px" y="200px" fill="#769656" />
	<rect width="50px" height="50px" x="250px" y="50px" fill="#769656" />
	<rect width="50px" height="50px" x="250px" y="150px" fill="#769656" />
	<rect width="50px" height="50px" x="250px" y="250px" fill="#769656" />
</svg>