<?xml version="1.0" encoding="UTF-8" standalone="no"?>
<svg
   xmlns:dc="http://purl.org/dc/elements/1.1/"
   xmlns:cc="http://creativecommons.org/ns#"
   xmlns:rdf="http://www.w3.org/1999/02/22-rdf-syntax-ns#"
   xmlns:svg="http://www.w3.org/2000/svg"
   xmlns="http://www.w3.org/2000/svg"
   xmlns:sodipodi="http://sodipodi.sourceforge.net/DTD/sodipodi-0.dtd"
   xmlns:inkscape="http://www.inkscape.org/namespaces/inkscape"
   version="1.1"
   width="512px"
   height="512px"
   style="shape-rendering:geometricPrecision; text-rendering:geometricPrecision; image-rendering:optimizeQuality; fill-rule:evenodd; clip-rule:evenodd"
   id="svg6"
   sodipodi:docname="cancel_button.svg"
   inkscape:version="0.92.5 (2060ec1f9f, 2020-04-08)">
  <metadata
     id="metadata12">
    <rdf:RDF>
      <cc:Work
         rdf:about="">
        <dc:format>image/svg+xml</dc:format>
        <dc:type
           rdf:resource="http://purl.org/dc/dcmitype/StillImage" />
      </cc:Work>
    </rdf:RDF>
  </metadata>
  <defs
     id="defs10" />
  <sodipodi:namedview
     pagecolor="#ffffff"
     bordercolor="#666666"
     borderopacity="1"
     objecttolerance="10"
     gridtolerance="10"
     guidetolerance="10"
     inkscape:pageopacity="0"
     inkscape:pageshadow="2"
     inkscape:window-width="789"
     inkscape:window-height="480"
     id="namedview8"
     showgrid="false"
     inkscape:zoom="0.4609375"
     inkscape:cx="256"
     inkscape:cy="256"
     inkscape:window-x="0"
     inkscape:window-y="0"
     inkscape:window-maximized="0"
     inkscape:current-layer="svg6" />
  <g
     id="g4"
     transform="matrix(0.8,0,0,0.8,51.1,51.1)">
    <path
       style="opacity:0.98699999;fill:#000000"
       d="m 69.5,-0.5 c 1,0 2,0 3,0 60.646,61.3123 121.646,122.312 183,183 61.354,-60.688 122.354,-121.6877 183,-183 1,0 2,0 3,0 23,23.6667 46.333,47 70,70 0,1 0,2 0,3 -61.312,60.646 -122.312,121.646 -183,183 60.688,61.354 121.688,122.354 183,183 0,1 0,2 0,3 -23.667,23 -47,46.333 -70,70 -1,0 -2,0 -3,0 -60.646,-61.312 -121.646,-122.312 -183,-183 -61.354,60.688 -122.354,121.688 -183,183 -1,0 -2,0 -3,0 -23,-23.667 -46.3333,-47 -70,-70 0,-1 0,-2 0,-3 61.3123,-60.646 122.312,-121.646 183,-183 -60.688,-61.354 -121.6877,-122.354 -183,-183 0,-1 0,-2 0,-3 23.6667,-23 47,-46.3333 70,-70 z"
       id="path2"
       inkscape:connector-curvature="0" />
  </g>
</svg>
