<?xml version="1.0" encoding="UTF-8" standalone="no"?>
<svg
   xmlns:dc="http://purl.org/dc/elements/1.1/"
   xmlns:cc="http://creativecommons.org/ns#"
   xmlns:rdf="http://www.w3.org/1999/02/22-rdf-syntax-ns#"
   xmlns:svg="http://www.w3.org/2000/svg"
   xmlns="http://www.w3.org/2000/svg"
   xmlns:sodipodi="http://sodipodi.sourceforge.net/DTD/sodipodi-0.dtd"
   xmlns:inkscape="http://www.inkscape.org/namespaces/inkscape"
   version="1.1"
   width="512px"
   height="512px"
   style="shape-rendering:geometricPrecision; text-rendering:geometricPrecision; image-rendering:optimizeQuality; fill-rule:evenodd; clip-rule:evenodd"
   id="svg18"
   sodipodi:docname="fire_piece.svg"
   inkscape:version="0.92.5 (2060ec1f9f, 2020-04-08)">
  <metadata
     id="metadata24">
    <rdf:RDF>
      <cc:Work
         rdf:about="">
        <dc:format>image/svg+xml</dc:format>
        <dc:type
           rdf:resource="http://purl.org/dc/dcmitype/StillImage" />
      </cc:Work>
    </rdf:RDF>
  </metadata>
  <defs
     id="defs22" />
  <sodipodi:namedview
     pagecolor="#ffffff"
     bordercolor="#666666"
     borderopacity="1"
     objecttolerance="10"
     gridtolerance="10"
     guidetolerance="10"
     inkscape:pageopacity="0"
     inkscape:pageshadow="2"
     inkscape:window-width="1366"
     inkscape:window-height="704"
     id="namedview20"
     showgrid="false"
     inkscape:zoom="0.4609375"
     inkscape:cx="-280.03866"
     inkscape:cy="328.60355"
     inkscape:window-x="0"
     inkscape:window-y="0"
     inkscape:window-maximized="1"
     inkscape:current-layer="svg18" />
  <g
     id="g4"
     transform="matrix(0.9,0,0,0.9,25.639523,25.55)">
    <path
       style="opacity:1;fill:#e64649"
       d="m 339.5,-0.5 c 3,0 6,0 9,0 2.855,3.09189 3.688,6.75856 2.5,11 -9.715,23.0459 -13.382,47.0459 -11,72 3.371,30.113 12.371,58.447 27,85 12.701,22.072 27.368,42.739 44,62 23.756,38.777 32.423,80.777 26,126 -14.58,77.245 -59.413,127.411 -134.5,150.5 -9.409,2.175 -18.742,4.009 -28,5.5 -12.667,0 -25.333,0 -38,0 0,-0.333 0,-0.667 0,-1 80.156,-12.981 132.322,-58.314 156.5,-136 11.699,-48.413 5.699,-94.413 -18,-138 -10.333,-13.667 -20.667,-27.333 -31,-41 -24.394,-33.802 -39.06,-71.468 -44,-113 -2.884,-25.3108 0.616,-49.6441 10.5,-73 9.508,-3.7937 19.175,-7.12704 29,-10 z"
       id="path2"
       inkscape:connector-curvature="0" />
  </g>
  <g
     id="g8"
     transform="matrix(0.9,0,0,0.9,26.809945,25.55)">
    <path
       style="opacity:0.99800002;fill:#ec6263"
       d="m 310.5,9.5 c -9.884,23.3559 -13.384,47.6892 -10.5,73 4.94,41.532 19.606,79.198 44,113 10.333,13.667 20.667,27.333 31,41 23.699,43.587 29.699,89.587 18,138 -24.178,77.686 -76.344,123.019 -156.5,136 C 165.313,500.811 115.147,463.145 86,397.5 76.356,373.946 71.856,349.446 72.5,324 77.1972,221.887 110.364,130.387 172,49.5 c 4.167,-4.1667 8.333,-8.3333 12.5,-12.5 3.416,-0.8933 6.583,-0.3933 9.5,1.5 1.861,19.0697 4.528,38.0697 8,57 25.982,-41.4788 62.149,-70.1455 108.5,-86 z"
       id="path6"
       inkscape:connector-curvature="0" />
  </g>
  <g
     id="g12"
     transform="matrix(0.9,0,0,0.9,25.639523,25.55)">
    <path
       style="opacity:1;fill:#fbb34d"
       d="m 237.5,453.5 c 51.789,-15.215 76.955,-49.882 75.5,-104 -3.904,-17.142 -10.571,-33.142 -20,-48 -16.385,-27.209 -35.218,-52.542 -56.5,-76 3.603,-4.942 7.603,-9.608 12,-14 5.099,-4.043 10.099,-3.876 15,0.5 26.306,29.786 49.806,61.62 70.5,95.5 27.001,44.985 22.167,86.152 -14.5,123.5 -23.842,19.962 -51.176,27.462 -82,22.5 z"
       id="path10"
       inkscape:connector-curvature="0" />
  </g>
  <g
     id="g16"
     transform="matrix(0.9,0,0,0.9,25.639523,25.55)">
    <path
       style="opacity:1;fill:#fbc06c"
       d="m 236.5,225.5 c 21.282,23.458 40.115,48.791 56.5,76 9.429,14.858 16.096,30.858 20,48 1.455,54.118 -23.711,88.785 -75.5,104 -43.543,-11.059 -69.377,-38.726 -77.5,-83 -1.06,-9.479 -0.393,-18.812 2,-28 3.692,-11.409 8.359,-22.409 14,-33 17.705,-29.856 37.872,-57.856 60.5,-84 z"
       id="path14"
       inkscape:connector-curvature="0" />
  </g>
</svg>
