<?xml version="1.0" encoding="UTF-8" standalone="no"?>
<svg
   xmlns:dc="http://purl.org/dc/elements/1.1/"
   xmlns:cc="http://creativecommons.org/ns#"
   xmlns:rdf="http://www.w3.org/1999/02/22-rdf-syntax-ns#"
   xmlns:svg="http://www.w3.org/2000/svg"
   xmlns="http://www.w3.org/2000/svg"
   xmlns:sodipodi="http://sodipodi.sourceforge.net/DTD/sodipodi-0.dtd"
   xmlns:inkscape="http://www.inkscape.org/namespaces/inkscape"
   version="1.1"
   width="512px"
   height="512px"
   style="shape-rendering:geometricPrecision; text-rendering:geometricPrecision; image-rendering:optimizeQuality; fill-rule:evenodd; clip-rule:evenodd"
   id="svg22"
   sodipodi:docname="send-button.svg"
   inkscape:version="0.92.5 (2060ec1f9f, 2020-04-08)">
  <metadata
     id="metadata28">
    <rdf:RDF>
      <cc:Work
         rdf:about="">
        <dc:format>image/svg+xml</dc:format>
        <dc:type
           rdf:resource="http://purl.org/dc/dcmitype/StillImage" />
      </cc:Work>
    </rdf:RDF>
  </metadata>
  <defs
     id="defs26" />
  <sodipodi:namedview
     pagecolor="#ffffff"
     bordercolor="#666666"
     borderopacity="1"
     objecttolerance="10"
     gridtolerance="10"
     guidetolerance="10"
     inkscape:pageopacity="0"
     inkscape:pageshadow="2"
     inkscape:window-width="1366"
     inkscape:window-height="704"
     id="namedview24"
     showgrid="false"
     inkscape:zoom="0.4609375"
     inkscape:cx="256"
     inkscape:cy="256"
     inkscape:window-x="0"
     inkscape:window-y="0"
     inkscape:window-maximized="1"
     inkscape:current-layer="svg22" />
  <g
     id="g4"
     transform="matrix(0.8,0,0,0.8,51.1,51.1)">
    <path
       style="opacity:0.98400005;fill:#000000"
       d="m -0.5,-0.5 c 37.6667,0 75.3333,0 113,0 85.159,100.969 170.325,201.969 255.5,303 25.141,-12.586 48.641,-10.086 70.5,7.5 1.507,0.837 2.007,2.004 1.5,3.5 -42.347,42.514 -84.847,84.847 -127.5,127 -15.076,-15.739 -20.576,-34.406 -16.5,-56 1.189,-5.902 3.355,-11.402 6.5,-16.5 -101.031,-85.175 -202.031,-170.341 -303,-255.5 0,-37.6667 0,-75.3333 0,-113 z m 74,55 c 36.083,34.5818 71.75,69.748 107,105.5 -6.833,6.833 -13.667,13.667 -20.5,20.5 -35,-35 -70,-70 -105,-105 -0.6667,-0.6667 -0.6667,-1.3333 0,-2 6.3694,-6.2019 12.5361,-12.5352 18.5,-19 z"
       id="path2"
       inkscape:connector-curvature="0" />
  </g>
  <g
     id="g8"
     transform="matrix(0.8,0,0,0.8,51.1,51.1)">
    <path
       style="opacity:0.98200001;fill:#000000"
       d="m 398.5,-0.5 c 37.667,0 75.333,0 113,0 0,37.6667 0,75.3333 0,113 -51.96,43.456 -103.794,87.122 -155.5,131 -27.542,-31.873 -54.709,-64.04 -81.5,-96.5 41.168,-49.3324 82.502,-98.4991 124,-147.5 z m 37,55 c 7.244,5.7383 14.077,12.0716 20.5,19 0.667,0.6667 0.667,1.3333 0,2 -35,35 -70,70 -105,105 -6.833,-6.833 -13.667,-13.667 -20.5,-20.5 35.201,-35.035 70.201,-70.2013 105,-105.5 z"
       id="path6"
       inkscape:connector-curvature="0" />
  </g>
  <g
     id="g12"
     transform="matrix(0.8,0,0,0.8,51.1,51.1)">
    <path
       style="opacity:0.97000002;fill:#000000"
       d="m 157.5,284.5 c 25.712,19.869 50.712,40.703 75,62.5 -7.683,7.349 -15.683,14.349 -24,21 11.479,22.467 10.313,44.3 -3.5,65.5 -2.176,2.375 -4.343,4.708 -6.5,7 -43,-42.333 -85.667,-85 -128,-128 15.9276,-15.57 34.928,-21.07 57,-16.5 5.509,1.391 10.676,3.557 15.5,6.5 5.449,-5.604 10.283,-11.604 14.5,-18 z"
       id="path10"
       inkscape:connector-curvature="0" />
  </g>
  <g
     id="g16"
     transform="matrix(0.8,0,0,0.8,51.1,51.1)">
    <path
       style="opacity:0.98699999;fill:#000000"
       d="m 89.5,511.5 c -30,0 -60,0 -90,0 0,-30 0,-60 0,-90 15.6702,0.167 31.3369,0 47,-0.5 15,-15 30,-30 45,-45 0.6667,-0.667 1.3333,-0.667 2,0 14.181,14.014 28.181,28.181 42,42.5 -14.986,15.486 -30.153,30.819 -45.5,46 -0.4999,15.663 -0.6666,31.33 -0.5,47 z"
       id="path14"
       inkscape:connector-curvature="0" />
  </g>
  <g
     id="g20"
     transform="matrix(0.8,0,0,0.8,51.1,51.1)">
    <path
       style="opacity:0.98699999;fill:#000000"
       d="m 511.5,421.5 c 0,30 0,60 0,90 -30,0 -60,0 -90,0 0.167,-15.67 0,-31.337 -0.5,-47 -15,-15 -30,-30 -45,-45 -0.667,-0.667 -0.667,-1.333 0,-2 14.014,-14.181 28.181,-28.181 42.5,-42 15.486,14.986 30.819,30.153 46,45.5 15.663,0.5 31.33,0.667 47,0.5 z"
       id="path18"
       inkscape:connector-curvature="0" />
  </g>
</svg>
